<?xml version="1.0" encoding="UTF-8" standalone="no"?>
<!-- Created with Inkscape (http://www.inkscape.org/) -->

<svg
   width="770mm"
   height="356mm"
   viewBox="0 0 770 356"
   version="1.1"
   id="svg1"
   xml:space="preserve"
   inkscape:version="1.4.2 (f4327f4, 2025-05-13)"
   sodipodi:docname="Logomarca vazada com nome.svg"
   xmlns:inkscape="http://www.inkscape.org/namespaces/inkscape"
   xmlns:sodipodi="http://sodipodi.sourceforge.net/DTD/sodipodi-0.dtd"
   xmlns="http://www.w3.org/2000/svg"
   xmlns:svg="http://www.w3.org/2000/svg"><sodipodi:namedview
     id="namedview1"
     pagecolor="#ffffff"
     bordercolor="#666666"
     borderopacity="1.0"
     inkscape:showpageshadow="2"
     inkscape:pageopacity="0.0"
     inkscape:pagecheckerboard="0"
     inkscape:deskcolor="#d1d1d1"
     inkscape:document-units="mm"
     showguides="true"
     inkscape:zoom="0.38083965"
     inkscape:cx="1341.7721"
     inkscape:cy="865.19354"
     inkscape:window-width="1920"
     inkscape:window-height="1057"
     inkscape:window-x="-8"
     inkscape:window-y="-7"
     inkscape:window-maximized="1"
     inkscape:current-layer="layer1"><sodipodi:guide
       position="5.4037798,259.71473"
       orientation="1,0"
       id="guide1"
       inkscape:locked="false" /><sodipodi:guide
       position="14.246369,350.59603"
       orientation="0,-1"
       id="guide3"
       inkscape:locked="false" /><sodipodi:guide
       position="380.71585,11.410525"
       orientation="0,-1"
       id="guide4"
       inkscape:locked="false" /><sodipodi:guide
       position="322.999,253.08238"
       orientation="1,0"
       id="guide7"
       inkscape:locked="false" /><sodipodi:guide
       position="758.65261,291.38946"
       orientation="1,0"
       id="guide8"
       inkscape:locked="false" /></sodipodi:namedview><defs
     id="defs1" /><g
     inkscape:label="Camada 1"
     inkscape:groupmode="layer"
     id="layer1"><path
       sodipodi:type="star"
       style="fill:none;stroke:#2b2e92;stroke-width:1.93101;stroke-dasharray:none;stroke-opacity:1"
       id="path1-5"
       inkscape:flatsided="true"
       sodipodi:sides="6"
       sodipodi:cx="59.196003"
       sodipodi:cy="79.828636"
       sodipodi:r1="60.07365"
       sodipodi:r2="30.036825"
       sodipodi:arg1="0.88966978"
       sodipodi:arg2="1.4132686"
       inkscape:rounded="0"
       inkscape:randomized="0"
       d="M 97.022494,126.49768 37.692667,135.92186 -0.1338237,89.252814 21.369512,33.159588 80.699338,23.73541 118.52583,70.404458 Z"
       transform="matrix(-2.2487365,0.81034409,-0.86177595,-2.1044637,350.51727,297.92726)" /><path
       sodipodi:type="star"
       style="fill:none;stroke:#2b2e92;stroke-width:2.08155;stroke-dasharray:none;stroke-opacity:1"
       id="path1-5-1"
       inkscape:flatsided="true"
       sodipodi:sides="6"
       sodipodi:cx="59.196003"
       sodipodi:cy="79.828636"
       sodipodi:r1="60.07365"
       sodipodi:r2="30.036825"
       sodipodi:arg1="0.88966978"
       sodipodi:arg2="1.4132686"
       inkscape:rounded="0"
       inkscape:randomized="0"
       d="M 97.022494,126.49768 37.692667,135.92186 -0.1338237,89.252814 21.369512,33.159588 80.699338,23.73541 118.52583,70.404458 Z"
       transform="matrix(-2.086106,0.75173933,-0.79945161,-1.952267,335.60084,289.08288)" /><text
       xml:space="preserve"
       style="font-size:4.9389px;line-height:1.25;font-family:big;-inkscape-font-specification:big;text-align:center;letter-spacing:0px;text-anchor:middle;stroke-width:0.264583"
       x="38.809002"
       y="155.23598"
       id="text4"><tspan
         sodipodi:role="line"
         id="tspan4"
         style="stroke-width:0.264583"
         x="38.809002"
         y="155.23598" /></text><path
       style="fill:#2b2e92;fill-opacity:1;stroke:#2b2e92;stroke-width:0.418307px;stroke-linecap:butt;stroke-linejoin:miter;stroke-opacity:1"
       d="m 92.81543,146.24993 c 0,0 1.638285,-0.83734 1.747517,-1.74751 l -0.582522,-11.6501 c 0,0 -10.858459,-10.84581 -24.465225,-9.51427 -9.49703,0.92936 -17.568933,9.51401 -22.523546,17.66933 -7.193492,11.84052 -7.746951,26.98975 -7.698092,40.84404 0.0434,12.30693 0.529939,25.82278 7.094049,36.23312 4.864462,7.71478 9.248581,14.97171 21.96258,16.31789 18.656307,1.97536 26.018577,-11.84428 26.018577,-11.84428 l 0.165025,-10.75209 c 0,0 -2.015561,-0.1694 -2.544771,0.32016 -2.765654,2.55843 -10.508962,10.27691 -16.648767,10.23777 -7.903447,-0.0504 -14.626852,-2.17311 -20.193523,-12.42679 -5.163031,-9.51019 -5.596479,-21.22228 -5.242551,-32.03779 0.384607,-11.75297 1.006941,-24.88506 7.960907,-34.36783 14.411067,-19.65161 34.950342,2.71835 34.950342,2.71835 z"
       id="path4"
       sodipodi:nodetypes="cccsaaasccsssasc" /><path
       style="fill:#2b2e92;fill-opacity:1;stroke:#2b2e92;stroke-width:0.418307px;stroke-linecap:butt;stroke-linejoin:miter;stroke-opacity:1"
       d="m 255.28305,145.95816 c 0,0 1.6383,-0.83735 1.74752,-1.74752 l -0.58251,-11.6501 c 0,0 -10.85847,-10.84581 -24.46524,-9.51427 -9.49702,0.92937 -17.56893,9.51402 -22.52355,17.66934 -7.19348,11.84051 -7.74694,26.98974 -7.69809,40.84404 0.0435,12.30693 0.52994,25.82277 7.09405,36.23311 4.86446,7.71479 9.24859,14.97172 21.96258,16.3179 18.65631,1.97535 26.01858,-11.84428 26.01858,-11.84428 l 0.16503,-10.75209 c 0,0 -2.01557,-0.16941 -2.54478,0.32015 -2.76565,2.55843 -10.50896,10.27692 -16.64876,10.23777 -7.90345,-0.0504 -14.62685,-2.17311 -20.19353,-12.42678 -5.16302,-9.5102 -5.59647,-21.22229 -5.24255,-32.03779 0.38461,-11.75298 1.00694,-24.88507 7.9609,-34.36783 14.41108,-19.65162 34.95035,2.71835 34.95035,2.71835 z"
       id="path4-1"
       sodipodi:nodetypes="cccsaaasccsssasc" /><path
       style="fill:#2b2e92;fill-opacity:1;stroke:#2b2e92;stroke-width:0.418967;stroke-linecap:butt;stroke-linejoin:miter;stroke-dasharray:none;stroke-opacity:1"
       d="m 99.485983,93.49963 0.0686,170.52394 c 0.16959,1.32688 1.621707,2.53707 3.454637,3.09626 l 38.15411,-0.0971 c 1.56247,-0.29994 2.67071,-0.86021 2.57274,-3.20379 v -13.00929 c -0.39619,-2.57082 -1.1966,-2.79307 -3.39795,-2.81544 l -30.16621,-0.19416 0.0166,-64.06385 27.57681,-0.20594 c 0,0 0.71103,-0.50813 0.81808,-1.24343 0.30559,-2.09889 0.25519,-6.42024 0.24984,-8.95041 -0.005,-2.27532 0.0926,-6.27328 -0.17517,-8.0512 -0.0847,-0.56218 -0.79566,-0.88055 -0.79566,-0.88055 l -27.4846,0.1893 0.009,-55.52731 33.29991,-0.14561 0.0485,-20.387674 -41.6006,0.145611 c -2.984347,0.510617 -2.494997,2.833605 -2.649537,4.820645 z"
       id="path5"
       sodipodi:nodetypes="ccccccccccssscccccccc" /><path
       style="fill:#2b2e92;fill-opacity:1;stroke:#2b2e92;stroke-width:0.418307px;stroke-linecap:butt;stroke-linejoin:miter;stroke-opacity:1"
       d="m 178.29812,91.737125 c 0.028,-1.46836 0.8176,-2.042786 1.89314,-2.281471 l 11.84428,-0.194179 c 0.89545,0.09328 1.95636,0.251981 2.57274,2.427113 l -0.67959,140.843242 c 0,0 -0.88064,23.15526 -10.97052,30.99588 -16.09807,12.50944 -31.76174,2.52655 -31.69801,-3.30086 l -0.33979,-16.01891 c 0.0356,-2.0185 1.1018,-2.10144 2.03877,-2.4271 0,0 5.8787,8.16644 15.92183,6.79733 10.60463,-1.44565 9.57,-20.17001 9.46714,-22.60196 z"
       id="path6"
       sodipodi:nodetypes="cccccscccscc" /><text
       xml:space="preserve"
       style="font-size:35.3122px;line-height:1.25;font-family:big;-inkscape-font-specification:big;text-align:center;letter-spacing:0px;text-anchor:middle;fill:#2b2e92;fill-opacity:1;stroke-width:1.89171"
       x="527.0108"
       y="132.30159"
       id="text5"><tspan
         sodipodi:role="line"
         id="tspan5"
         style="font-style:normal;font-variant:normal;font-weight:normal;font-stretch:normal;font-family:Arial;-inkscape-font-specification:Arial;fill:#2b2e92;fill-opacity:1;stroke-width:1.89171"
         x="527.0108"
         y="132.30159">CENTRO EDUCACIONAL</tspan></text><text
       xml:space="preserve"
       style="font-size:65.9476px;line-height:0.95;font-family:big;-inkscape-font-specification:big;text-align:start;letter-spacing:0px;text-anchor:start;fill:#2b2e92;fill-opacity:1;stroke-width:3.5329"
       x="320.4256"
       y="193.77768"
       id="text6"><tspan
         sodipodi:role="line"
         id="tspan6"
         style="font-style:normal;font-variant:normal;font-weight:bold;font-stretch:normal;line-height:0.95;font-family:Arial;-inkscape-font-specification:'Arial Bold';text-align:start;text-anchor:start;fill:#2b2e92;fill-opacity:1;stroke-width:3.5329"
         x="320.4256"
         y="193.77768">JUVENAL DE</tspan><tspan
         sodipodi:role="line"
         style="font-style:normal;font-variant:normal;font-weight:bold;font-stretch:normal;line-height:0.95;font-family:Arial;-inkscape-font-specification:'Arial Bold';text-align:start;text-anchor:start;fill:#2b2e92;fill-opacity:1;stroke-width:3.5329"
         x="320.4256"
         y="257.19131"
         id="tspan7">CARVALHO</tspan></text></g></svg>
